<mxfile host="app.diagrams.net" modified="2022-10-21T00:20:00.315Z" agent="5.0 (Windows NT 10.0; Win64; x64) AppleWebKit/537.36 (KHTML, like Gecko) Chrome/106.0.0.0 Safari/537.36" etag="zhV3_MMDY-CJTp91Z5zd" version="20.4.2" type="github">
  <diagram id="OYgyoeQ4cRTz8VLO4bsm" name="Página-1">
    <mxGraphModel dx="1607" dy="752" grid="1" gridSize="10" guides="1" tooltips="1" connect="1" arrows="1" fold="1" page="1" pageScale="1" pageWidth="827" pageHeight="1169" math="0" shadow="0">
      <root>
        <mxCell id="0" />
        <mxCell id="1" parent="0" />
        <mxCell id="Zu5s9qkrUJdbfHZ7qnUy-7" style="edgeStyle=orthogonalEdgeStyle;rounded=0;orthogonalLoop=1;jettySize=auto;html=1;exitX=0.5;exitY=0.5;exitDx=0;exitDy=0;exitPerimeter=0;entryX=0;entryY=0.5;entryDx=0;entryDy=0;" edge="1" parent="1" source="Zu5s9qkrUJdbfHZ7qnUy-1" target="Zu5s9qkrUJdbfHZ7qnUy-4">
          <mxGeometry relative="1" as="geometry" />
        </mxCell>
        <mxCell id="Zu5s9qkrUJdbfHZ7qnUy-8" style="edgeStyle=orthogonalEdgeStyle;rounded=0;orthogonalLoop=1;jettySize=auto;html=1;exitX=0.5;exitY=0.5;exitDx=0;exitDy=0;exitPerimeter=0;entryX=0;entryY=0.613;entryDx=0;entryDy=0;entryPerimeter=0;" edge="1" parent="1" source="Zu5s9qkrUJdbfHZ7qnUy-1" target="Zu5s9qkrUJdbfHZ7qnUy-2">
          <mxGeometry relative="1" as="geometry">
            <mxPoint x="-260" y="210" as="targetPoint" />
          </mxGeometry>
        </mxCell>
        <mxCell id="Zu5s9qkrUJdbfHZ7qnUy-9" style="edgeStyle=orthogonalEdgeStyle;rounded=0;orthogonalLoop=1;jettySize=auto;html=1;exitX=0.5;exitY=0.5;exitDx=0;exitDy=0;exitPerimeter=0;entryX=0;entryY=0.5;entryDx=0;entryDy=0;" edge="1" parent="1" source="Zu5s9qkrUJdbfHZ7qnUy-1" target="Zu5s9qkrUJdbfHZ7qnUy-3">
          <mxGeometry relative="1" as="geometry" />
        </mxCell>
        <mxCell id="Zu5s9qkrUJdbfHZ7qnUy-18" style="edgeStyle=orthogonalEdgeStyle;rounded=0;orthogonalLoop=1;jettySize=auto;html=1;exitX=0.5;exitY=0.5;exitDx=0;exitDy=0;exitPerimeter=0;entryX=0;entryY=0.5;entryDx=0;entryDy=0;" edge="1" parent="1" source="Zu5s9qkrUJdbfHZ7qnUy-1" target="Zu5s9qkrUJdbfHZ7qnUy-11">
          <mxGeometry relative="1" as="geometry" />
        </mxCell>
        <mxCell id="Zu5s9qkrUJdbfHZ7qnUy-1" value="Actor" style="shape=umlActor;verticalLabelPosition=bottom;verticalAlign=top;html=1;outlineConnect=0;" vertex="1" parent="1">
          <mxGeometry x="-330" y="250" width="30" height="60" as="geometry" />
        </mxCell>
        <mxCell id="Zu5s9qkrUJdbfHZ7qnUy-2" value="Criar Conta" style="ellipse;whiteSpace=wrap;html=1;" vertex="1" parent="1">
          <mxGeometry x="-180" y="150" width="120" height="80" as="geometry" />
        </mxCell>
        <mxCell id="Zu5s9qkrUJdbfHZ7qnUy-34" style="edgeStyle=orthogonalEdgeStyle;rounded=0;orthogonalLoop=1;jettySize=auto;html=1;exitX=1;exitY=0.5;exitDx=0;exitDy=0;" edge="1" parent="1" source="Zu5s9qkrUJdbfHZ7qnUy-3" target="Zu5s9qkrUJdbfHZ7qnUy-33">
          <mxGeometry relative="1" as="geometry" />
        </mxCell>
        <mxCell id="Zu5s9qkrUJdbfHZ7qnUy-3" value="Ver biblioteca" style="ellipse;whiteSpace=wrap;html=1;" vertex="1" parent="1">
          <mxGeometry x="-180" y="330" width="120" height="80" as="geometry" />
        </mxCell>
        <mxCell id="Zu5s9qkrUJdbfHZ7qnUy-4" value="Login" style="ellipse;whiteSpace=wrap;html=1;" vertex="1" parent="1">
          <mxGeometry x="-180" y="240" width="120" height="80" as="geometry" />
        </mxCell>
        <mxCell id="Zu5s9qkrUJdbfHZ7qnUy-10" style="edgeStyle=orthogonalEdgeStyle;rounded=0;orthogonalLoop=1;jettySize=auto;html=1;exitX=0.5;exitY=1;exitDx=0;exitDy=0;" edge="1" parent="1" source="Zu5s9qkrUJdbfHZ7qnUy-2" target="Zu5s9qkrUJdbfHZ7qnUy-2">
          <mxGeometry relative="1" as="geometry" />
        </mxCell>
        <mxCell id="Zu5s9qkrUJdbfHZ7qnUy-20" style="edgeStyle=orthogonalEdgeStyle;rounded=0;orthogonalLoop=1;jettySize=auto;html=1;exitX=1;exitY=0.5;exitDx=0;exitDy=0;entryX=0;entryY=0.5;entryDx=0;entryDy=0;" edge="1" parent="1" source="Zu5s9qkrUJdbfHZ7qnUy-11" target="Zu5s9qkrUJdbfHZ7qnUy-13">
          <mxGeometry relative="1" as="geometry" />
        </mxCell>
        <mxCell id="Zu5s9qkrUJdbfHZ7qnUy-21" style="edgeStyle=orthogonalEdgeStyle;rounded=0;orthogonalLoop=1;jettySize=auto;html=1;exitX=1;exitY=0.5;exitDx=0;exitDy=0;entryX=0;entryY=0.5;entryDx=0;entryDy=0;" edge="1" parent="1" source="Zu5s9qkrUJdbfHZ7qnUy-11" target="Zu5s9qkrUJdbfHZ7qnUy-14">
          <mxGeometry relative="1" as="geometry" />
        </mxCell>
        <mxCell id="Zu5s9qkrUJdbfHZ7qnUy-22" style="edgeStyle=orthogonalEdgeStyle;rounded=0;orthogonalLoop=1;jettySize=auto;html=1;exitX=1;exitY=0.5;exitDx=0;exitDy=0;entryX=0;entryY=0.5;entryDx=0;entryDy=0;" edge="1" parent="1" source="Zu5s9qkrUJdbfHZ7qnUy-11" target="Zu5s9qkrUJdbfHZ7qnUy-15">
          <mxGeometry relative="1" as="geometry" />
        </mxCell>
        <mxCell id="Zu5s9qkrUJdbfHZ7qnUy-30" style="edgeStyle=orthogonalEdgeStyle;rounded=0;orthogonalLoop=1;jettySize=auto;html=1;exitX=1;exitY=0.5;exitDx=0;exitDy=0;entryX=0;entryY=0.5;entryDx=0;entryDy=0;" edge="1" parent="1" source="Zu5s9qkrUJdbfHZ7qnUy-11" target="Zu5s9qkrUJdbfHZ7qnUy-28">
          <mxGeometry relative="1" as="geometry" />
        </mxCell>
        <mxCell id="Zu5s9qkrUJdbfHZ7qnUy-39" value="&amp;lt;include&amp;gt;" style="edgeStyle=orthogonalEdgeStyle;rounded=0;orthogonalLoop=1;jettySize=auto;html=1;exitX=1;exitY=0;exitDx=0;exitDy=0;entryX=1;entryY=0.5;entryDx=0;entryDy=0;dashed=1;" edge="1" parent="1" source="Zu5s9qkrUJdbfHZ7qnUy-11" target="Zu5s9qkrUJdbfHZ7qnUy-4">
          <mxGeometry x="0.3581" relative="1" as="geometry">
            <Array as="points">
              <mxPoint x="-20" y="432" />
              <mxPoint x="-20" y="280" />
            </Array>
            <mxPoint as="offset" />
          </mxGeometry>
        </mxCell>
        <mxCell id="Zu5s9qkrUJdbfHZ7qnUy-11" value="Página Pessoal" style="ellipse;whiteSpace=wrap;html=1;" vertex="1" parent="1">
          <mxGeometry x="-180" y="420" width="120" height="80" as="geometry" />
        </mxCell>
        <mxCell id="Zu5s9qkrUJdbfHZ7qnUy-24" value="&amp;lt;Include&amp;gt;" style="edgeStyle=orthogonalEdgeStyle;rounded=0;orthogonalLoop=1;jettySize=auto;html=1;exitX=1;exitY=0.5;exitDx=0;exitDy=0;entryX=0;entryY=0.5;entryDx=0;entryDy=0;dashed=1;" edge="1" parent="1" source="Zu5s9qkrUJdbfHZ7qnUy-13" target="Zu5s9qkrUJdbfHZ7qnUy-23">
          <mxGeometry relative="1" as="geometry" />
        </mxCell>
        <mxCell id="Zu5s9qkrUJdbfHZ7qnUy-13" value="Doar Livro" style="ellipse;whiteSpace=wrap;html=1;" vertex="1" parent="1">
          <mxGeometry x="40" y="420" width="120" height="80" as="geometry" />
        </mxCell>
        <mxCell id="Zu5s9qkrUJdbfHZ7qnUy-26" value="&amp;lt;Include&amp;gt;" style="edgeStyle=orthogonalEdgeStyle;rounded=0;orthogonalLoop=1;jettySize=auto;html=1;exitX=1;exitY=0.5;exitDx=0;exitDy=0;dashed=1;" edge="1" parent="1" source="Zu5s9qkrUJdbfHZ7qnUy-14">
          <mxGeometry relative="1" as="geometry">
            <mxPoint x="280" y="560" as="targetPoint" />
          </mxGeometry>
        </mxCell>
        <mxCell id="Zu5s9qkrUJdbfHZ7qnUy-14" value="Ver inventário" style="ellipse;whiteSpace=wrap;html=1;" vertex="1" parent="1">
          <mxGeometry x="40" y="520" width="120" height="80" as="geometry" />
        </mxCell>
        <mxCell id="Zu5s9qkrUJdbfHZ7qnUy-27" value="&amp;lt;Iinclude&amp;gt;" style="edgeStyle=orthogonalEdgeStyle;rounded=0;orthogonalLoop=1;jettySize=auto;html=1;exitX=1;exitY=0.5;exitDx=0;exitDy=0;entryX=0;entryY=0.5;entryDx=0;entryDy=0;dashed=1;" edge="1" parent="1" source="Zu5s9qkrUJdbfHZ7qnUy-15" target="Zu5s9qkrUJdbfHZ7qnUy-23">
          <mxGeometry relative="1" as="geometry" />
        </mxCell>
        <mxCell id="Zu5s9qkrUJdbfHZ7qnUy-15" value="Ver histórico" style="ellipse;whiteSpace=wrap;html=1;" vertex="1" parent="1">
          <mxGeometry x="40" y="620" width="120" height="80" as="geometry" />
        </mxCell>
        <mxCell id="Zu5s9qkrUJdbfHZ7qnUy-23" value="Validar Login" style="ellipse;whiteSpace=wrap;html=1;" vertex="1" parent="1">
          <mxGeometry x="280" y="520" width="120" height="80" as="geometry" />
        </mxCell>
        <mxCell id="Zu5s9qkrUJdbfHZ7qnUy-31" value="&amp;lt;include&amp;gt;" style="edgeStyle=orthogonalEdgeStyle;rounded=0;orthogonalLoop=1;jettySize=auto;html=1;exitX=1;exitY=0.5;exitDx=0;exitDy=0;entryX=0;entryY=0.5;entryDx=0;entryDy=0;" edge="1" parent="1" source="Zu5s9qkrUJdbfHZ7qnUy-28" target="Zu5s9qkrUJdbfHZ7qnUy-23">
          <mxGeometry x="-0.2727" relative="1" as="geometry">
            <Array as="points">
              <mxPoint x="220" y="770" />
              <mxPoint x="220" y="560" />
            </Array>
            <mxPoint as="offset" />
          </mxGeometry>
        </mxCell>
        <mxCell id="Zu5s9qkrUJdbfHZ7qnUy-28" value="Obter Doação" style="ellipse;whiteSpace=wrap;html=1;" vertex="1" parent="1">
          <mxGeometry x="40" y="730" width="120" height="80" as="geometry" />
        </mxCell>
        <mxCell id="Zu5s9qkrUJdbfHZ7qnUy-35" value="&amp;lt;include&amp;gt;" style="edgeStyle=orthogonalEdgeStyle;rounded=0;orthogonalLoop=1;jettySize=auto;html=1;exitX=1;exitY=0.5;exitDx=0;exitDy=0;entryX=0;entryY=0.5;entryDx=0;entryDy=0;" edge="1" parent="1" source="Zu5s9qkrUJdbfHZ7qnUy-33" target="Zu5s9qkrUJdbfHZ7qnUy-23">
          <mxGeometry x="-0.2903" relative="1" as="geometry">
            <mxPoint as="offset" />
          </mxGeometry>
        </mxCell>
        <mxCell id="Zu5s9qkrUJdbfHZ7qnUy-33" value="Comprar Livro" style="ellipse;whiteSpace=wrap;html=1;" vertex="1" parent="1">
          <mxGeometry x="40" y="330" width="120" height="80" as="geometry" />
        </mxCell>
        <mxCell id="Zu5s9qkrUJdbfHZ7qnUy-40" value="&amp;lt;extend&amp;gt;" style="edgeStyle=orthogonalEdgeStyle;rounded=0;orthogonalLoop=1;jettySize=auto;html=1;exitX=0;exitY=0;exitDx=0;exitDy=0;entryX=1;entryY=0;entryDx=0;entryDy=0;dashed=1;" edge="1" parent="1" source="Zu5s9qkrUJdbfHZ7qnUy-36" target="Zu5s9qkrUJdbfHZ7qnUy-33">
          <mxGeometry relative="1" as="geometry" />
        </mxCell>
        <mxCell id="Zu5s9qkrUJdbfHZ7qnUy-36" value="Gerenciar Reservas" style="ellipse;whiteSpace=wrap;html=1;" vertex="1" parent="1">
          <mxGeometry x="280" y="330" width="120" height="80" as="geometry" />
        </mxCell>
      </root>
    </mxGraphModel>
  </diagram>
</mxfile>
